<?xml version="1.0" ?>
<!-- Uploaded to: SVG Repo, www.svgrepo.com, Generator: SVG Repo Mixer Tools -->
<svg width="800px" height="800px" viewBox="0 0 24 24" version="1.1" xml:space="preserve" xmlns="http://www.w3.org/2000/svg" xmlns:xlink="http://www.w3.org/1999/xlink">
<style type="text/css">
	.st0{opacity:0.2;fill:none;stroke:#000000;stroke-width:5.000000e-02;stroke-miterlimit:10;}
	.st1{fill:none;stroke:#000000;stroke-width:2;stroke-linecap:round;stroke-linejoin:round;stroke-miterlimit:10;}
</style>
<g id="Layer_1"/>
<g id="Layer_2">
<g>
<path d="M5,18c-0.2,0-0.3,0-0.4-0.1c-0.5-0.2-0.7-0.8-0.4-1.3l1-2c0.2-0.5,0.8-0.7,1.3-0.4c0.5,0.2,0.7,0.8,0.4,1.3l-1,2    C5.7,17.8,5.4,18,5,18z"/>
</g>
<g>
<path d="M11,18c-0.2,0-0.3,0-0.4-0.1c-0.5-0.2-0.7-0.8-0.4-1.3l1-2c0.2-0.5,0.8-0.7,1.3-0.4c0.5,0.2,0.7,0.8,0.4,1.3l-1,2    C11.7,17.8,11.4,18,11,18z"/>
</g>
<g>
<path d="M7,22c-0.2,0-0.3,0-0.4-0.1c-0.5-0.2-0.7-0.8-0.4-1.3l1-2c0.2-0.5,0.8-0.7,1.3-0.4s0.7,0.8,0.4,1.3l-1,2    C7.7,21.8,7.4,22,7,22z"/>
</g>
<g>
<path d="M3.8,13c-0.3,0-0.5-0.1-0.7-0.3C2.4,11.9,2,11,2,10c0-2.2,1.8-4,4-4h1.1C7.6,3.7,9.6,2,12,2s4.4,1.7,4.9,4H18    c2.2,0,4,1.8,4,4c0,0.6-0.4,1-1,1s-1-0.4-1-1c0-1.1-0.9-2-2-2h-2c-0.6,0-1-0.4-1-1c0-1.7-1.3-3-3-3S9,5.3,9,7c0,0.6-0.4,1-1,1H6    c-1.1,0-2,0.9-2,2c0,0.5,0.2,1,0.5,1.3c0.4,0.4,0.3,1-0.1,1.4C4.2,12.9,4,13,3.8,13z"/>
</g>
<g>
<path d="M17.5,20c-1.4,0-2.5-1.1-2.5-2.5s1.1-2.5,2.5-2.5H21c0.6,0,1,0.4,1,1s-0.4,1-1,1h-3.5c-0.3,0-0.5,0.2-0.5,0.5    s0.2,0.5,0.5,0.5c0.6,0,1,0.4,1,1S18.1,20,17.5,20z"/>
</g>
<g>
<path d="M21,14h-5.5c-1.4,0-2.5-1.1-2.5-2.5S14.1,9,15.5,9c0.6,0,1,0.4,1,1s-0.4,1-1,1c-0.3,0-0.5,0.2-0.5,0.5s0.2,0.5,0.5,0.5H21    c0.6,0,1,0.4,1,1S21.6,14,21,14z"/>
</g>
</g>
</svg>